<svg width="55" height="71" viewBox="0 0 55 71" fill="none" xmlns="http://www.w3.org/2000/svg">
<path fill-rule="evenodd" clip-rule="evenodd" d="M45.6897 8.64L37 0V8H28V8.00445C27.8337 8.00149 27.667 8 27.5 8C12.3122 8 0 20.3122 0 35.5C0 40.0023 1.08194 44.2518 3 48.0028V48H15.2525C12.0112 44.8237 10 40.3967 10 35.5C10 25.835 17.835 18 27.5 18C27.6672 18 27.8339 18.0023 28 18.007V18H37H48.7142H55L45.6897 8.64ZM45 35.5C45 45.165 37.165 53 27.5 53C27.3328 53 27.1661 52.9977 27 52.993V53H18H6.28581H0L9.31034 62.36L18 71V63H27V62.9955C27.1663 62.9985 27.333 63 27.5 63C42.6878 63 55 50.6878 55 35.5C55 30.9977 53.9181 26.7482 52 22.9972V23H39.7475C42.9888 26.1763 45 30.6033 45 35.5ZM26 35.5C26 34.6716 26.6716 34 27.5 34C28.3284 34 29 34.6716 29 35.5C29 36.3284 28.3284 37 27.5 37C26.6716 37 26 36.3284 26 35.5ZM33 35.5C33 38.5376 30.5376 41 27.5 41C24.4624 41 22 38.5376 22 35.5C22 32.4624 24.4624 30 27.5 30C30.5376 30 33 32.4624 33 35.5ZM32.4142 41.4142C33.1952 40.6332 34.4615 40.6332 35.2426 41.4142L37.3639 43.5355C38.145 44.3166 38.145 45.5829 37.3639 46.364C36.5829 47.145 35.3165 47.145 34.5355 46.364L32.4142 44.2426C31.6331 43.4616 31.6331 42.1953 32.4142 41.4142ZM19.2426 25.4142C18.4615 24.6332 17.1952 24.6332 16.4142 25.4142C15.6331 26.1953 15.6331 27.4616 16.4142 28.2426L18.5355 30.364C19.3165 31.145 20.5829 31.145 21.3639 30.364C22.145 29.5829 22.145 28.3166 21.3639 27.5355L19.2426 25.4142Z" fill="white"/>
</svg>
