<svg width="59" height="59" viewBox="0 0 59 59" fill="none" xmlns="http://www.w3.org/2000/svg">
<path d="M59 29.5C59 33.374 58.237 37.2101 56.7544 40.7892C55.2719 44.3683 53.099 47.6203 50.3596 50.3597C47.6203 53.099 44.3683 55.2719 40.7892 56.7544C37.2101 58.237 33.374 59 29.5 59C25.626 59 21.7899 58.237 18.2108 56.7544C14.6317 55.2719 11.3797 53.099 8.64035 50.3596C5.90102 47.6203 3.72807 44.3683 2.24555 40.7892C0.763039 37.2101 -3.38675e-07 33.374 0 29.5L29.5 29.5H59Z" fill="#AFA9A1"/>
<path d="M59 29.5C59 21.6761 55.892 14.1727 50.3597 8.64035C44.8273 3.10803 37.3239 5.90687e-07 29.5 0C21.6761 -5.90687e-07 14.1727 3.10803 8.64035 8.64035C3.10803 14.1727 1.18137e-06 21.6761 0 29.5L29.5 29.5H59Z" fill="#EBE6DA"/>
<path d="M0 29.5C0 33.4119 3.10803 37.1637 8.64035 39.9298C14.1727 42.696 21.6761 44.25 29.5 44.25C37.3239 44.25 44.8273 42.696 50.3596 39.9298C55.892 37.1637 59 33.4119 59 29.5L29.5 29.5L0 29.5Z" fill="#FFFEFB"/>
<path d="M59 29.5C59 25.5881 55.892 21.8363 50.3597 19.0702C44.8273 16.304 37.3239 14.75 29.5 14.75C21.6761 14.75 14.1727 16.304 8.64035 19.0702C3.10803 21.8363 1.18137e-06 25.5881 0 29.5L29.5 29.5L59 29.5Z" fill="#D0CBBE"/>
<path d="M37.3667 29.5002C37.3667 30.0168 37.1632 30.5282 36.7679 31.0054C36.3725 31.4827 35.7931 31.9163 35.0626 32.2815C34.3321 32.6468 33.4649 32.9365 32.5105 33.1342C31.556 33.3318 30.5331 33.4336 29.5 33.4336C28.467 33.4336 27.444 33.3318 26.4896 33.1342C25.5352 32.9365 24.6679 32.6468 23.9375 32.2815C23.207 31.9163 22.6275 31.4827 22.2322 31.0054C21.8368 30.5282 21.6334 30.0168 21.6334 29.5002L29.5 29.5002H37.3667Z" fill="#FF6726" fill-opacity="0.54"/>
<path d="M21.6333 29.4998C21.6333 28.9832 21.8368 28.4718 22.2321 27.9946C22.6275 27.5173 23.2069 27.0837 23.9374 26.7185C24.6679 26.3532 25.5351 26.0635 26.4895 25.8658C27.444 25.6682 28.4669 25.5664 29.5 25.5664C30.533 25.5664 31.556 25.6682 32.5104 25.8658C33.4648 26.0635 34.3321 26.3532 35.0625 26.7185C35.793 27.0837 36.3725 27.5173 36.7678 27.9946C37.1632 28.4718 37.3666 28.9832 37.3666 29.4998L29.5 29.4998H21.6333Z" fill="#FF6726" fill-opacity="0.72"/>
</svg>
