<svg width="60" height="60" viewBox="0 0 60 60" fill="none" xmlns="http://www.w3.org/2000/svg">
<path d="M60 30C60 33.9397 59.224 37.8407 57.7164 41.4805C56.2087 45.1203 53.999 48.4274 51.2132 51.2132C48.4274 53.999 45.1203 56.2087 41.4805 57.7164C37.8407 59.224 33.9397 60 30 60C26.0603 60 22.1593 59.224 18.5195 57.7164C14.8797 56.2087 11.5726 53.999 8.7868 51.2132C6.00104 48.4274 3.79125 45.1203 2.28361 41.4805C0.775972 37.8407 -3.44416e-07 33.9397 0 30L30 30L60 30Z" fill="#AFA9A1"/>
<path d="M60 30C60 22.0435 56.8393 14.4129 51.2132 8.7868C45.5871 3.16071 37.9565 6.00699e-07 30 0C22.0435 -6.00699e-07 14.4129 3.1607 8.7868 8.78679C3.16071 14.4129 1.2014e-06 22.0435 0 30L30 30H60Z" fill="#EBE6DA"/>
<path d="M0 30C0 33.9782 3.1607 37.7936 8.7868 40.6066C14.4129 43.4196 22.0435 45 30 45C37.9565 45 45.5871 43.4196 51.2132 40.6066C56.8393 37.7936 60 33.9782 60 30L30 30L0 30Z" fill="#FFFEFB"/>
<path d="M60 30C60 26.0218 56.8393 22.2064 51.2132 19.3934C45.5871 16.5804 37.9565 15 30 15C22.0435 15 14.4129 16.5804 8.7868 19.3934C3.16071 22.2064 1.2014e-06 26.0218 0 30L30 30L60 30Z" fill="#D0CBBE"/>
<path d="M38.0002 29.9985C38.0002 30.5238 37.7933 31.044 37.3913 31.5293C36.9892 32.0146 36.4 32.4555 35.6571 32.827C34.9142 33.1984 34.0323 33.493 33.0617 33.6941C32.0911 33.8951 31.0508 33.9985 30.0002 33.9985C28.9497 33.9985 27.9094 33.8951 26.9388 33.6941C25.9682 33.493 25.0863 33.1984 24.3434 32.827C23.6005 32.4555 23.0112 32.0146 22.6092 31.5293C22.2072 31.044 22.0002 30.5238 22.0002 29.9985L30.0002 29.9985H38.0002Z" fill="#FF6726" fill-opacity="0.54"/>
<path d="M21.9998 30.0015C21.9998 29.4762 22.2067 28.956 22.6087 28.4707C23.0108 27.9854 23.6 27.5445 24.3429 27.173C25.0858 26.8016 25.9677 26.507 26.9383 26.3059C27.9089 26.1049 28.9492 26.0015 29.9998 26.0015C31.0503 26.0015 32.0906 26.1049 33.0612 26.3059C34.0318 26.507 34.9137 26.8016 35.6566 27.173C36.3995 27.5445 36.9888 27.9854 37.3908 28.4707C37.7928 28.956 37.9998 29.4762 37.9998 30.0015L29.9998 30.0015H21.9998Z" fill="#FF6726" fill-opacity="0.72"/>
</svg>
